<?xml version="1.0" encoding="utf-8"?><svg viewBox="0 0 24 20" xmlns="http://www.w3.org/2000/svg" xmlns:xlink="http://www.w3.org/1999/xlink"><style>:root>svg{display:none}:root>svg:target{display:block}</style><svg fill="none" viewBox="0 0 6 10" id="arrow-right" xmlns="http://www.w3.org/2000/svg"><path d="M5.722 4.683.718.123a.422.422 0 0 0-.595 0 .417.417 0 0 0 0 .591L4.826 5 .124 9.286a.417.417 0 0 0 0 .591c.164.164.43.164.594 0l5.004-4.56A.412.412 0 0 0 5.842 5a.416.416 0 0 0-.12-.317Z" fill="#C1C1C1"/></svg><svg fill="none" viewBox="0 0 6 10" id="arrow-right_primary" xmlns="http://www.w3.org/2000/svg"><path d="M5.722 4.683.718.123a.422.422 0 0 0-.595 0 .417.417 0 0 0 0 .591L4.826 5 .124 9.286a.417.417 0 0 0 0 .591c.164.164.43.164.594 0l5.004-4.56A.412.412 0 0 0 5.842 5a.416.416 0 0 0-.12-.317Z" fill="#FF6838"/></svg><svg fill="none" viewBox="0 0 12 9" id="check" xmlns="http://www.w3.org/2000/svg"><path d="M4.196 8.393a.587.587 0 0 1-.416-.173L.173 4.613a.588.588 0 1 1 .832-.833l3.191 3.19L10.995.174a.588.588 0 1 1 .832.833L4.613 8.22a.588.588 0 0 1-.417.173Z" fill="#363853"/></svg><svg fill="none" viewBox="0 0 24 20" id="quote-left" xmlns="http://www.w3.org/2000/svg"><path d="M5.217 9.565c1.276.116 2.32.609 3.13 1.479.812.869 1.218 1.97 1.218 3.304 0 1.45-.435 2.637-1.304 3.565-.87.87-1.971 1.304-3.304 1.304-1.508 0-2.725-.55-3.653-1.652C.434 16.464 0 14.754 0 12.435 0 7.97 1.478 4.115 4.435.87c.58-.58 1.246-.87 2-.87.637 0 1.188.232 1.652.696.464.405.696.898.696 1.478 0 .638-.232 1.188-.696 1.652-1.507 1.565-2.464 3.478-2.87 5.74Zm14.435 0c1.275.116 2.319.609 3.13 1.479.812.869 1.218 1.97 1.218 3.304 0 1.45-.435 2.637-1.304 3.565-.87.87-1.971 1.304-3.305 1.304-1.507 0-2.724-.55-3.652-1.652-.87-1.101-1.304-2.811-1.304-5.13 0-4.464 1.478-8.32 4.435-11.565.58-.58 1.246-.87 2-.87.637 0 1.188.232 1.652.696.463.405.695.898.695 1.478 0 .638-.232 1.188-.695 1.652-1.507 1.565-2.464 3.478-2.87 5.74Z" fill="#C2C2C2"/></svg></svg>